<svg width="93" height="22" viewBox="0 0 93 22" fill="none" xmlns="http://www.w3.org/2000/svg">
<path d="M12.1799 20.8426C12.8224 20.2014 12.8224 19.1605 12.1799 18.5192L6.28986 12.6401H25.3599C26.2657 12.6401 27 11.9058 27 11C27 10.0942 26.2657 9.35992 25.3599 9.35992H6.28986L12.1799 3.48075C12.8224 2.83952 12.8224 1.79862 12.1799 1.15738C11.5392 0.517832 10.5016 0.517832 9.86088 1.15739L0.709075 10.2922C0.317676 10.6829 0.317676 11.3171 0.709075 11.7078L9.86088 20.8426C10.5016 21.4822 11.5392 21.4822 12.1799 20.8426Z" fill="white" fill-opacity="0.5"/>
<path d="M80.8201 1.15738C80.1776 1.79862 80.1776 2.83952 80.8201 3.48075L86.7101 9.35992L67.6401 9.35992C66.7343 9.35992 66 10.0942 66 11C66 11.9058 66.7343 12.6401 67.6401 12.6401L86.7101 12.6401L80.8201 18.5192C80.1776 19.1605 80.1776 20.2014 80.8201 20.8426C81.4608 21.4822 82.4984 21.4822 83.1391 20.8426L92.2909 11.7078C92.6823 11.3171 92.6823 10.6829 92.2909 10.2922L83.1391 1.15738C82.4984 0.517831 81.4608 0.517831 80.8201 1.15738Z" fill="white"/>
</svg>
