<svg width="132" height="132" viewBox="0 0 132 132" fill="none" xmlns="http://www.w3.org/2000/svg">
<g filter="url(#filter0_d_21_141)">
<circle cx="64" cy="60" r="56" fill="white"/>
</g>
<path d="M59.0334 47.1866C58.9774 47.2452 58.9774 47.3374 59.0334 47.3954L59.649 48.011C59.707 48.067 59.7992 48.067 59.8578 48.011L60.5428 47.326H60.5423C60.5894 47.2871 60.6578 47.2871 60.705 47.326C60.9605 47.4804 61.2387 47.5939 61.5289 47.6628C61.588 47.6778 61.6304 47.7296 61.6336 47.7903V48.7655C61.6336 48.8422 61.6957 48.9043 61.7729 48.9043H62.6549C62.6916 48.9043 62.7274 48.8898 62.7533 48.8639C62.7797 48.8375 62.7942 48.8023 62.7942 48.7655V47.7322C62.7974 47.6716 62.8398 47.6198 62.8989 47.6048C63.1891 47.5358 63.4674 47.4224 63.7228 47.268C63.77 47.2291 63.8383 47.2291 63.8855 47.268L64.5705 47.953H64.57C64.6286 48.0089 64.7208 48.0089 64.7788 47.953L65.3944 47.3374C65.4504 47.2794 65.4504 47.1871 65.3944 47.1286L64.7094 46.4436V46.4441C64.6705 46.3969 64.6705 46.3285 64.7094 46.2814C64.8638 46.0259 64.9773 45.7477 65.0462 45.4575C65.0612 45.3984 65.113 45.3559 65.1737 45.3528H66.1489C66.1857 45.3528 66.2209 45.3383 66.2473 45.3119C66.2732 45.286 66.2877 45.2502 66.2877 45.2134V44.3315C66.2877 44.2947 66.2732 44.259 66.2473 44.2331C66.2209 44.2066 66.1857 44.1921 66.1489 44.1921H65.1737C65.113 44.189 65.0612 44.1465 65.0462 44.0875C64.9773 43.7973 64.8638 43.519 64.7094 43.2636C64.6705 43.2164 64.6705 43.148 64.7094 43.1009L65.3944 42.4158V42.4164C65.4504 42.3578 65.4504 42.2656 65.3944 42.2075L64.7788 41.592C64.7208 41.536 64.6286 41.536 64.57 41.592L63.885 42.277H63.8855C63.8384 42.3158 63.77 42.3158 63.7228 42.277C63.4673 42.1226 63.1891 42.0091 62.8989 41.9402C62.8637 41.9505 62.8264 41.9464 62.7942 41.9288V40.9536C62.7942 40.9168 62.7797 40.8815 62.7533 40.8551C62.7274 40.8292 62.6917 40.8147 62.6549 40.8147H61.7729C61.6957 40.8147 61.6336 40.8769 61.6336 40.9536V41.9288C61.6304 41.9894 61.588 42.0412 61.5289 42.0562C61.2387 42.1252 60.9604 42.2386 60.705 42.3931C60.6578 42.4319 60.5895 42.4319 60.5423 42.3931L59.8925 41.65C59.834 41.594 59.7417 41.594 59.6837 41.65L59.0686 42.2651V42.2656C59.0127 42.3236 59.0127 42.4158 59.0686 42.4744L59.7537 43.1594L59.7531 43.1589C59.792 43.2061 59.792 43.2744 59.7531 43.3216C59.5987 43.5771 59.4852 43.8553 59.4168 44.1455C59.4013 44.2046 59.35 44.247 59.2889 44.2502H58.3137H58.3142C58.237 44.2502 58.1748 44.3123 58.1748 44.3895V45.2715C58.1748 45.3487 58.237 45.4109 58.3142 45.4109H59.2894H59.2889C59.35 45.414 59.4013 45.4565 59.4168 45.5155C59.4852 45.8057 59.5987 46.084 59.7531 46.3394C59.792 46.3866 59.792 46.455 59.7531 46.5021L59.0334 47.1866ZM62.214 43.0894C62.9182 43.0894 63.5529 43.5138 63.8224 44.1641C64.0918 44.8149 63.9431 45.5637 63.4451 46.0617C62.9472 46.5596 62.1984 46.7083 61.5476 46.4389C60.8973 46.1695 60.4729 45.5347 60.4729 44.8305C60.4729 43.8688 61.2522 43.0895 62.2139 43.0895L62.214 43.0894Z" fill="black"/>
<path d="M57.5716 52.3746C57.5716 52.0668 57.4493 51.7715 57.2317 51.5538C57.014 51.3362 56.7187 51.2139 56.4109 51.2139H49.4467C48.8057 51.2139 48.286 51.7337 48.286 52.3746V59.3388C48.286 59.6466 48.4083 59.9419 48.6259 60.1596C48.8436 60.3772 49.1389 60.4995 49.4467 60.4995H56.4109C56.7187 60.4995 57.014 60.3772 57.2317 60.1596C57.4493 59.9419 57.5716 59.6466 57.5716 59.3388V52.3746ZM55.2502 58.1781H50.6074V53.5353H55.2502V58.1781Z" fill="black"/>
<path d="M57.5716 63.9816C57.5716 63.6738 57.4493 63.3785 57.2317 63.1608C57.014 62.9432 56.7187 62.8209 56.4109 62.8209H49.4467C48.8057 62.8209 48.286 63.3406 48.286 63.9816V70.9458C48.286 71.2536 48.4083 71.5489 48.6259 71.7666C48.8436 71.9842 49.1389 72.1065 49.4467 72.1065H56.4109C56.7187 72.1065 57.014 71.9842 57.2317 71.7666C57.4493 71.5489 57.5716 71.2536 57.5716 70.9458V63.9816ZM55.2502 69.7851H50.6074V65.1423H55.2502V69.7851Z" fill="black"/>
<path d="M56.4109 74.4277H49.4467C48.8057 74.4277 48.286 74.9475 48.286 75.5884V82.5526C48.286 82.8604 48.4083 83.1558 48.6259 83.3734C48.8436 83.591 49.1389 83.7133 49.4467 83.7133H56.4109C56.7187 83.7133 57.014 83.591 57.2317 83.3734C57.4493 83.1558 57.5716 82.8604 57.5716 82.5526V75.5884C57.5716 75.2806 57.4493 74.9853 57.2317 74.7677C57.014 74.55 56.7187 74.4277 56.4109 74.4277ZM55.2502 81.3919H50.6074V76.7491H55.2502V81.3919Z" fill="black"/>
<path d="M71.4999 52.3746H61.0537C60.4127 52.3746 59.893 52.8944 59.893 53.5353C59.893 54.1763 60.4127 54.696 61.0537 54.696H71.4999C72.1409 54.696 72.6606 54.1763 72.6606 53.5353C72.6606 52.8944 72.1409 52.3746 71.4999 52.3746Z" fill="black"/>
<path d="M61.0537 57.0174C60.4127 57.0174 59.893 57.5371 59.893 58.1781C59.893 58.8191 60.4127 59.3388 61.0537 59.3388H65.6965C66.3374 59.3388 66.8571 58.8191 66.8571 58.1781C66.8571 57.5371 66.3374 57.0174 65.6965 57.0174H61.0537Z" fill="black"/>
<path d="M71.4999 57.0174H70.3392C69.6982 57.0174 69.1785 57.5371 69.1785 58.1781C69.1785 58.8191 69.6982 59.3388 70.3392 59.3388H71.4999C72.1409 59.3388 72.6606 58.8191 72.6606 58.1781C72.6606 57.5371 72.1409 57.0174 71.4999 57.0174Z" fill="black"/>
<path d="M69.1785 65.1423C69.1785 64.8345 69.0563 64.5392 68.8386 64.3215C68.621 64.1039 68.3256 63.9816 68.0178 63.9816H61.0537C60.4127 63.9816 59.893 64.5014 59.893 65.1423C59.893 65.7833 60.4127 66.303 61.0537 66.303H68.0178C68.3256 66.303 68.621 66.1807 68.8386 65.9631C69.0562 65.7455 69.1785 65.4501 69.1785 65.1423Z" fill="black"/>
<path d="M64.5358 68.6244H61.0537C60.4127 68.6244 59.893 69.1441 59.893 69.7851C59.893 70.4261 60.4127 70.9458 61.0537 70.9458H64.5358C65.1767 70.9458 65.6965 70.4261 65.6965 69.7851C65.6965 69.1441 65.1767 68.6244 64.5358 68.6244Z" fill="black"/>
<path d="M64.5358 75.5885H61.0537C60.4127 75.5885 59.893 76.1082 59.893 76.7492C59.893 77.3902 60.4127 77.9099 61.0537 77.9099H64.5358C65.1767 77.9099 65.6965 77.3902 65.6965 76.7492C65.6965 76.1082 65.1767 75.5885 64.5358 75.5885Z" fill="black"/>
<path d="M64.5358 80.2313H61.0537C60.4127 80.2313 59.893 80.751 59.893 81.392C59.893 82.033 60.4127 82.5527 61.0537 82.5527H64.5358C65.1767 82.5527 65.6965 82.033 65.6965 81.392C65.6965 80.751 65.1767 80.2313 64.5358 80.2313Z" fill="black"/>
<path d="M92.8911 35.3591L90.3262 34.117C89.5557 33.7528 88.6727 33.7072 87.8691 33.9896C87.0649 34.272 86.4048 34.8601 86.0316 35.6259L85.428 36.8794V32.6428C85.428 32.335 85.3057 32.0396 85.0881 31.822C84.8704 31.6044 84.5751 31.4821 84.2673 31.4821H69.1782V29.1607C69.1782 28.8529 69.0559 28.5575 68.8383 28.3399C68.6207 28.1223 68.3253 28 68.0175 28H56.4106C55.7696 28 55.2499 28.5197 55.2499 29.1607V31.4821H40.1608C39.5199 31.4821 39.0001 32.0018 39.0001 32.6428V34.9642C39.0001 35.6051 39.5199 36.1249 40.1608 36.1249C40.8018 36.1249 41.3215 35.6051 41.3215 34.9642V33.8035H49.4464V36.1249H44.8036C44.1626 36.1249 43.6429 36.6446 43.6429 37.2856V87.1955C43.6429 87.5033 43.7652 87.7986 43.9828 88.0163C44.2005 88.2339 44.4958 88.3562 44.8036 88.3562H79.6245C79.9323 88.3562 80.2276 88.2339 80.4453 88.0163C80.6629 87.7986 80.7852 87.5033 80.7852 87.1955V86.0348C80.7852 85.3938 80.2655 84.8741 79.6245 84.8741C78.9835 84.8741 78.4638 85.3938 78.4638 86.0348H45.9643V38.4463H78.4638V51.3414L68.7953 71.4221V71.4915V71.492C68.7611 71.5817 68.7377 71.6755 68.7253 71.7703L67.8315 81.6476L67.832 81.6481C67.7833 82.1331 68.0429 82.5969 68.4818 82.8088C68.6232 82.8762 68.7776 82.9119 68.9346 82.913H69.0507C69.143 82.9254 69.2367 82.9254 69.329 82.913H69.4451C69.5736 82.8664 69.6917 82.7954 69.7933 82.7042L76.9548 75.8447C77.0222 75.7747 77.0807 75.697 77.1289 75.6125L78.4637 72.7455V81.3928C78.4637 82.0337 78.9834 82.5535 79.6244 82.5535C80.2653 82.5535 80.785 82.0337 80.785 81.3928V67.9287L83.1064 63.1005V90.6786H41.3214V39.608C41.3214 38.967 40.8017 38.4473 40.1607 38.4473C39.5197 38.4473 39 38.967 39 39.608V91.8393C39 92.1471 39.1223 92.4425 39.3399 92.6601C39.5575 92.8777 39.8529 93 40.1607 93H84.2671C84.5749 93 84.8703 92.8777 85.0879 92.6601C85.3055 92.4425 85.4278 92.1471 85.4278 91.8393V58.2839L90.7556 47.2106L92.7636 43.0902L94.3999 39.6081C94.7528 38.8433 94.7922 37.9707 94.5103 37.1769C94.2284 36.3831 93.6476 35.7313 92.891 35.3603L92.8911 35.3591ZM88.1209 36.6358C88.223 36.4198 88.4064 36.2524 88.6313 36.1716C88.8515 36.084 89.0966 36.084 89.3163 36.1716L91.8812 37.4017C92.0973 37.5038 92.2647 37.6877 92.3455 37.9126C92.4331 38.1323 92.4331 38.3774 92.3455 38.5971L91.1848 40.9185L86.9949 38.8986L88.1209 36.6358ZM74.6449 74.7411L74.5521 74.8339L70.3389 78.827V78.4554L70.8379 72.9422L73.2987 72.6054L74.6449 74.7411ZM85.9963 41.081L90.1754 43.0889L89.1655 45.1782L84.987 43.1702L85.9963 41.081ZM51.7671 33.8034H56.4099C56.7177 33.8034 57.013 33.6811 57.2307 33.4634C57.4483 33.2458 57.5706 32.9504 57.5706 32.6427V30.3213H66.8561V32.6427C66.8561 32.9504 66.9784 33.2458 67.1961 33.4634C67.4137 33.6811 67.7091 33.8034 68.0168 33.8034H72.6596V36.1247H51.7671V33.8034ZM74.981 36.1247V33.8034H83.1059V41.6961L80.7845 46.571V37.2854C80.7845 36.9776 80.6622 36.6823 80.4446 36.4647C80.2269 36.247 79.9316 36.1247 79.6238 36.1247H74.981ZM76.0142 72.4897L74.981 70.7486C74.9323 70.6554 74.8649 70.5724 74.7836 70.5051L74.6908 70.4357L74.5281 70.3196H74.4007L74.2266 70.2616H74.0872L73.8203 70.261L71.8238 70.5398L83.9763 45.2366L88.1548 47.2565L76.0142 72.4897Z" fill="black"/>
<defs>
<filter id="filter0_d_21_141" x="0" y="0" width="132" height="132" filterUnits="userSpaceOnUse" color-interpolation-filters="sRGB">
<feFlood flood-opacity="0" result="BackgroundImageFix"/>
<feColorMatrix in="SourceAlpha" type="matrix" values="0 0 0 0 0 0 0 0 0 0 0 0 0 0 0 0 0 0 127 0" result="hardAlpha"/>
<feOffset dx="2" dy="6"/>
<feGaussianBlur stdDeviation="5"/>
<feComposite in2="hardAlpha" operator="out"/>
<feColorMatrix type="matrix" values="0 0 0 0 0 0 0 0 0 0 0 0 0 0 0 0 0 0 0.2 0"/>
<feBlend mode="normal" in2="BackgroundImageFix" result="effect1_dropShadow_21_141"/>
<feBlend mode="normal" in="SourceGraphic" in2="effect1_dropShadow_21_141" result="shape"/>
</filter>
</defs>
</svg>
