<svg width="132" height="132" viewBox="0 0 132 132" fill="none" xmlns="http://www.w3.org/2000/svg">
<g filter="url(#filter0_d_131_5)">
<circle cx="64" cy="60" r="56" fill="white"/>
</g>
<path d="M89.63 84.2892H38.7009C36.9244 84.2869 35.2215 83.5802 33.965 82.3242C32.7089 81.0677 32.0022 79.3648 32 77.5882V45.423C32.0022 43.6464 32.709 41.943 33.965 40.6866C35.2215 39.4306 36.9244 38.7239 38.7009 38.7217V41.4024C37.6348 41.4024 36.612 41.826 35.8582 42.5799C35.1039 43.3338 34.6803 44.3565 34.6803 45.4231V77.5883C34.6803 78.6545 35.1039 79.6772 35.8582 80.4311C36.6121 81.1854 37.6348 81.609 38.7009 81.609H89.63C90.6962 81.609 91.7189 81.1854 92.4728 80.4311C93.2271 79.6772 93.6507 78.6545 93.6507 77.5883V45.4231C93.6507 44.3564 93.2271 43.3337 92.4728 42.5799C91.7189 41.826 90.6962 41.4024 89.63 41.4024V38.7217C91.4066 38.7239 93.1095 39.4307 94.366 40.6866C95.6221 41.9431 96.3288 43.6465 96.331 45.423V77.5882C96.3287 79.3648 95.622 81.0677 94.366 82.3242C93.1095 83.5803 91.4066 84.287 89.63 84.2892Z" fill="black"/>
<path d="M50.7629 89.6505H77.5669V92.3308H50.7629V89.6505Z" fill="black"/>
<path d="M54.7836 82.9486H57.4639V90.9899H54.7836V82.9486Z" fill="black"/>
<path d="M70.8662 82.9486H73.5465V90.9899H70.8662V82.9486Z" fill="black"/>
<path d="M82.9282 73.5678H45.4028C44.3362 73.5678 43.3135 73.1442 42.5596 72.3899C41.8058 71.636 41.3822 70.6133 41.3822 69.5472V44.0826H44.0624V69.5472C44.0624 69.9026 44.2038 70.2432 44.4551 70.4949C44.7064 70.7462 45.0474 70.8871 45.4028 70.8871H82.9282C83.2836 70.8871 83.6246 70.7462 83.8759 70.4949C84.1272 70.2432 84.2686 69.9026 84.2686 69.5472V32.0207C84.2686 31.6653 84.1272 31.3242 83.8759 31.0729C83.6246 30.8217 83.2836 30.6803 82.9282 30.6803H45.4028C44.6624 30.6803 44.0624 31.2807 44.0624 32.0207V38.7216H81.589V41.4019L42.7218 41.4023C41.9819 41.4023 41.3819 40.8019 41.3819 40.062V32.0207C41.3819 30.9545 41.8055 29.9318 42.5594 29.1775C43.3133 28.4236 44.336 28 45.4026 28H82.928C83.9946 28 85.0173 28.4236 85.7711 29.1775C86.525 29.9318 86.9486 30.9545 86.9486 32.0207V69.5472C86.9486 70.6134 86.525 71.6361 85.7711 72.3899C85.0173 73.1442 83.9946 73.5678 82.928 73.5678L82.9282 73.5678Z" fill="black"/>
<path d="M44.0622 78.928H41.3819C40.3153 78.928 39.2926 78.5044 38.5388 77.7505C37.7849 76.9966 37.3613 75.974 37.3613 74.9073V72.2271H40.0416V74.9073C40.0416 75.2627 40.1829 75.6038 40.4342 75.8551C40.6855 76.1064 41.0265 76.2477 41.3819 76.2477H44.0622V78.928Z" fill="black"/>
<path d="M46.7423 76.2479H49.4226V78.9282H46.7423V76.2479Z" fill="black"/>
<path d="M46.7423 33.3611H49.4226V36.0414H46.7423V33.3611Z" fill="black"/>
<path d="M52.1035 33.3611H54.7838V36.0414H52.1035V33.3611Z" fill="black"/>
<path d="M57.4648 33.3611H60.1451V36.0414H57.4648V33.3611Z" fill="black"/>
<path d="M56.5171 59.7724L49.8161 53.0715C49.2929 52.5478 49.2929 51.6998 49.8161 51.176L56.5171 44.4751L58.4121 46.3701L52.6584 52.1238L58.4121 57.8774L56.5171 59.7724Z" fill="black"/>
<path d="M71.8139 59.7724L69.9189 57.8774L75.6726 52.1238L69.9189 46.3701L71.8139 44.4751L78.5149 51.176C79.0381 51.6997 79.0381 52.5478 78.5149 53.0715L71.8139 59.7724Z" fill="black"/>
<path d="M60.2436 58.3295L65.5997 44.9258L68.0889 45.9202L62.7328 59.3239L60.2436 58.3295Z" fill="black"/>
<path d="M48.0829 65.5265H80.2481V68.2068H48.0829V65.5265Z" fill="black"/>
<defs>
<filter id="filter0_d_131_5" x="0" y="0" width="132" height="132" filterUnits="userSpaceOnUse" color-interpolation-filters="sRGB">
<feFlood flood-opacity="0" result="BackgroundImageFix"/>
<feColorMatrix in="SourceAlpha" type="matrix" values="0 0 0 0 0 0 0 0 0 0 0 0 0 0 0 0 0 0 127 0" result="hardAlpha"/>
<feOffset dx="2" dy="6"/>
<feGaussianBlur stdDeviation="5"/>
<feComposite in2="hardAlpha" operator="out"/>
<feColorMatrix type="matrix" values="0 0 0 0 0 0 0 0 0 0 0 0 0 0 0 0 0 0 0.2 0"/>
<feBlend mode="normal" in2="BackgroundImageFix" result="effect1_dropShadow_131_5"/>
<feBlend mode="normal" in="SourceGraphic" in2="effect1_dropShadow_131_5" result="shape"/>
</filter>
</defs>
</svg>
