<svg width="132" height="132" viewBox="0 0 132 132" fill="none" xmlns="http://www.w3.org/2000/svg">
<g filter="url(#filter0_d_131_8)">
<circle cx="64" cy="60" r="56" fill="white"/>
</g>
<path d="M35.8677 59.4947C35.8677 58.0767 35.9463 56.5801 36.1827 55.2407C36.3404 54.2953 36.4976 53.35 36.734 52.4832L31.9286 49.7258C31.0619 49.2531 30.7469 48.15 31.2196 47.2838L36.9703 37.279C37.443 36.4123 38.5461 36.0973 39.4123 36.57L44.2176 39.3275C45.9506 37.6731 47.8413 36.2551 49.8897 35.0734C51.9381 33.8917 54.1438 32.9463 56.4286 32.3159L56.4286 26.8016C56.4286 25.8562 57.2162 24.9895 58.2407 24.9895L69.7426 24.9895C70.7665 24.9895 71.5547 25.7771 71.5547 26.8016L71.5547 32.3159C73.8395 32.9463 76.0451 33.8917 78.0935 35.0734C80.142 36.2551 82.0327 37.6731 83.7656 39.3275L88.571 36.57C89.4377 36.0973 90.5403 36.3337 91.013 37.279L96.7637 47.2838C97.2363 48.1505 97 49.2531 96.0546 49.7258L91.2493 52.4832C91.4856 53.4286 91.6434 54.2953 91.8006 55.2407C92.0369 56.6587 92.1155 58.0767 92.1155 59.4947C92.1155 60.9128 92.0369 62.4094 91.8006 63.7488C91.6428 64.6942 91.4856 65.6395 91.2493 66.5063L96.0547 69.2637C96.9214 69.7364 97.2363 70.8395 96.7637 71.7057L91.013 81.7105C90.5403 82.5772 89.4372 82.8921 88.571 82.4195L83.7656 79.662C82.0327 81.3164 80.142 82.7344 78.0935 83.9161C76.0451 85.0978 73.9181 86.0431 71.5547 86.6735L71.5547 92.1879C71.5547 93.2118 70.7671 94 69.7426 94L58.3198 94C57.3745 94 56.5077 93.2124 56.5077 92.1879L56.5077 86.6735C54.2229 86.0431 52.0173 85.0978 49.9689 83.9161C47.9204 82.7344 46.0297 81.3164 44.2968 79.662L39.4914 82.4195C38.6247 82.8921 37.5221 82.6558 37.0494 81.7891L31.2987 71.7843C30.8261 70.9175 31.0624 69.815 32.0077 69.3423L36.8131 66.5849C36.5768 65.7181 36.419 64.7728 36.2618 63.8274C35.9464 62.4094 35.8677 60.9128 35.8677 59.4947ZM39.7277 55.7919C39.57 56.9736 39.4914 58.2339 39.4914 59.4947C39.4914 60.755 39.57 62.0158 39.7277 63.1975C39.9641 64.4578 40.2004 65.6395 40.5945 66.8212C40.8308 67.6088 40.5159 68.4756 39.8069 68.9482L35.3951 71.5479L39.3342 78.4017L43.746 75.8806C44.455 75.4079 45.479 75.5657 46.0308 76.1956C47.6852 78.0077 49.6545 79.5829 51.8606 80.8437C53.9877 82.0254 56.1933 82.9707 58.6358 83.522C59.5026 83.6006 60.2116 84.3888 60.2116 85.3341L60.2105 90.3763L68.0883 90.3763L68.0883 85.2555C68.0883 84.4679 68.6395 83.6798 69.5063 83.5226C71.9483 82.9713 74.3116 82.1045 76.4387 80.8442C78.6443 79.584 80.535 78.0082 82.2685 76.1961C82.8198 75.5657 83.7651 75.4085 84.4741 75.8812L88.886 78.4017L92.8251 71.5479L88.4924 69.0268C87.7048 68.6328 87.3107 67.6874 87.5471 66.8998C87.9411 65.7181 88.1775 64.5364 88.3347 63.2761C88.4924 62.0944 88.6496 60.8342 88.6496 59.5733C88.6496 58.313 88.571 57.0522 88.3347 55.8705C88.1769 54.6102 87.862 53.4286 87.5471 52.2469C87.3107 51.4593 87.6257 50.5925 88.3347 50.1198L92.7465 47.5201L88.8074 40.6663L84.3955 43.1875C83.6865 43.6601 82.7412 43.5024 82.1108 42.8725C80.3778 41.0604 78.4871 39.4852 76.2809 38.2244C74.2325 37.0427 71.9483 36.0973 69.5057 35.5461C68.639 35.4675 67.93 34.6793 67.93 33.734L67.93 28.6131L60.1314 28.6131L60.1314 33.734C60.1314 34.5216 59.5801 35.3097 58.7134 35.4669C56.2714 36.0182 53.908 36.8849 51.781 38.1452C49.6539 39.4055 47.6846 40.9813 45.9511 42.7934C45.3999 43.4238 44.4545 43.581 43.7455 43.1875L39.2551 40.5877L35.316 47.4415L39.6492 49.9626C40.4368 50.3567 40.8309 51.2229 40.5945 52.0897C40.2004 53.2714 39.9641 54.5317 39.7278 55.7919L39.7277 55.7919ZM55.5624 59.4947C55.5624 57.1314 56.5077 55.0043 58.0835 53.5077C59.6592 51.9319 61.7071 50.9866 64.0705 50.9866C66.4339 50.9866 68.5609 51.9319 70.1367 53.5077C71.7124 55.0835 72.5786 57.1314 72.5786 59.4947C72.5786 61.8581 71.6333 63.9851 70.1367 65.5609C68.5609 67.0575 66.4339 68.0029 64.0705 68.0029C61.7071 68.0029 59.5801 67.0575 58.0835 65.5609C56.5077 63.9851 55.5624 61.8581 55.5624 59.4947ZM60.604 56.0283C59.7373 56.895 59.186 58.1553 59.186 59.4947C59.186 60.8342 59.7373 62.0944 60.604 62.9612C61.4708 63.8279 62.7311 64.3792 64.0705 64.3792C65.4099 64.3792 66.6702 63.8279 67.537 62.9612C68.4037 62.0944 68.955 60.8342 68.955 59.4947C68.955 58.1553 68.4037 56.895 67.537 56.0283C66.6702 55.1615 65.4099 54.6102 64.0705 54.6102C62.7311 54.6102 61.4708 55.162 60.604 56.0283ZM45.8728 59.4947C45.8728 54.5317 47.9212 49.9626 51.1508 46.6539C54.3809 43.3452 59.0291 41.3754 64.0708 41.3754C69.1125 41.3754 73.6029 43.4238 76.9116 46.6534C80.2203 49.9626 82.1902 54.5316 82.1902 59.4947C82.1902 64.5364 80.1417 69.0268 76.9121 72.3356C73.6029 75.6443 69.1125 77.6141 64.0708 77.6141C59.1077 77.6141 54.5387 75.5657 51.2299 72.3361C47.9212 69.106 45.8728 64.5364 45.8728 59.4947ZM53.7505 49.2536C51.1508 51.8533 49.4964 55.477 49.4964 59.4947C49.4964 63.5125 51.1508 67.1361 53.7505 69.815C56.3502 72.4147 59.9739 74.0691 63.9916 74.0691C68.0094 74.0691 71.633 72.4933 74.3119 69.815C76.9116 67.2153 78.566 63.5125 78.566 59.4947C78.566 55.477 76.9116 51.8533 74.3119 49.2536C71.7122 46.6539 68.0094 44.9996 63.9916 44.9996C60.053 44.9204 56.4294 46.5748 53.7505 49.2536Z" fill="black"/>
<defs>
<filter id="filter0_d_131_8" x="0" y="0" width="132" height="132" filterUnits="userSpaceOnUse" color-interpolation-filters="sRGB">
<feFlood flood-opacity="0" result="BackgroundImageFix"/>
<feColorMatrix in="SourceAlpha" type="matrix" values="0 0 0 0 0 0 0 0 0 0 0 0 0 0 0 0 0 0 127 0" result="hardAlpha"/>
<feOffset dx="2" dy="6"/>
<feGaussianBlur stdDeviation="5"/>
<feComposite in2="hardAlpha" operator="out"/>
<feColorMatrix type="matrix" values="0 0 0 0 0 0 0 0 0 0 0 0 0 0 0 0 0 0 0.2 0"/>
<feBlend mode="normal" in2="BackgroundImageFix" result="effect1_dropShadow_131_8"/>
<feBlend mode="normal" in="SourceGraphic" in2="effect1_dropShadow_131_8" result="shape"/>
</filter>
</defs>
</svg>
