<svg width="132" height="132" viewBox="0 0 132 132" fill="none" xmlns="http://www.w3.org/2000/svg">
<g filter="url(#filter0_d_131_7)">
<circle cx="64" cy="60" r="56" fill="white"/>
</g>
<path d="M93.1255 28C91.0311 28 89.2803 29.4417 88.7766 31.3817H80.6367C80.2623 31.3817 79.9131 31.5679 79.7032 31.8764L78.0295 34.3498C73.817 32.0042 68.9723 30.6616 63.8173 30.6616C58.6622 30.6616 53.8175 32.0042 49.605 34.3498L47.9313 31.8764C47.7214 31.5674 47.3722 31.3817 46.9978 31.3817H38.8579C38.3542 29.4417 36.6034 28 34.509 28C32.0225 28 30 30.0225 30 32.509C30 34.9955 32.0225 37.0179 34.509 37.0179C36.6034 37.0179 38.3542 35.5762 38.8579 33.6362H46.3994L47.6766 35.5233C39.7497 40.774 34.5091 49.769 34.5091 59.9696C34.5091 70.3774 39.9661 79.5282 48.1648 84.7303L46.4941 86.3638H38.8581C38.3543 84.4238 36.6036 82.9821 34.5091 82.9821C32.0226 82.9821 30.0001 85.0045 30.0001 87.491C30.0001 89.9775 32.0226 92 34.5091 92C36.6036 92 38.3544 90.5583 38.8581 88.6183H46.9541C47.2485 88.6183 47.5313 88.502 47.7422 88.2972L50.1884 85.9054C54.2636 88.0553 58.8983 89.2791 63.8183 89.2791C79.9784 89.2791 93.1266 76.1323 93.1266 59.9709C93.1266 49.7703 87.8859 40.7755 79.9591 35.5245L81.2363 33.6375H88.7778C89.2815 35.5775 91.0322 37.0192 93.1267 37.0192C95.6132 37.0192 97.6357 34.9967 97.6357 32.5102C97.6357 30.0237 95.6132 28.0013 93.1267 28.0013L93.1255 28ZM34.509 34.7634C33.2655 34.7634 32.2545 33.7524 32.2545 32.509C32.2545 31.2655 33.2655 30.2545 34.509 30.2545C35.7525 30.2545 36.7635 31.2655 36.7635 32.509C36.7635 33.7524 35.7525 34.7634 34.509 34.7634ZM34.509 89.7445C33.2655 89.7445 32.2545 88.7335 32.2545 87.49C32.2545 86.2465 33.2655 85.2355 34.509 85.2355C35.7525 85.2355 36.7635 86.2465 36.7635 87.49C36.7635 88.7335 35.7525 89.7445 34.509 89.7445ZM48.9403 37.3902L50.5849 39.8203C50.9366 40.3386 51.6412 40.4685 52.1504 40.1223C52.6667 39.773 52.8006 39.073 52.4523 38.5568L50.8721 36.2212C54.4093 34.2848 58.4246 33.1204 62.691 32.9441L62.6915 58.8436H36.792C37.1619 49.8866 41.9053 42.0419 48.9391 37.3912L48.9403 37.3902ZM51.8882 84.2423L54.3063 81.8785C54.7517 81.4432 54.7592 80.7296 54.3244 80.2848C53.8891 79.8394 53.1755 79.8319 52.7292 80.2667L49.8184 83.112C42.2997 78.5476 37.1762 70.424 36.7914 61.0966H63.3518L82.1232 79.8681C77.3022 84.3061 70.8725 87.0225 63.8181 87.0225C59.5381 87.0225 55.4901 86.0191 51.8884 84.2427L51.8882 84.2423ZM90.8714 59.9699C90.8714 67.0242 88.155 73.4542 83.717 78.275L64.9455 59.5035V32.9444C69.2119 33.12 73.2272 34.2845 76.7644 36.2215L75.1842 38.557C74.835 39.0733 74.9699 39.7733 75.4862 40.1225C75.9955 40.4688 76.7 40.3399 77.0517 39.8206L78.6963 37.3905C86.0254 42.2356 90.8726 50.5451 90.8726 59.9701L90.8714 59.9699ZM93.1259 34.7634C91.8824 34.7634 90.8714 33.7524 90.8714 32.509C90.8714 31.2655 91.8824 30.2545 93.1259 30.2545C94.3694 30.2545 95.3804 31.2655 95.3804 32.509C95.3804 33.7524 94.3694 34.7634 93.1259 34.7634Z" fill="black"/>
<path d="M62.1437 68.4307H54.2419C53.6199 68.4307 53.1147 68.9344 53.1147 69.5579C53.1147 70.1814 53.6199 70.6851 54.2419 70.6851H62.1437C62.7657 70.6851 63.2709 70.1814 63.2709 69.5579C63.2709 68.9344 62.7657 68.4307 62.1437 68.4307Z" fill="black"/>
<path d="M62.1437 73.0503H54.2419C53.6199 73.0503 53.1147 73.554 53.1147 74.1775C53.1147 74.801 53.6199 75.3048 54.2419 75.3048H62.1437C62.7657 75.3048 63.2709 74.801 63.2709 74.1775C63.2709 73.554 62.7657 73.0503 62.1437 73.0503Z" fill="black"/>
<path d="M47.567 48.3966H55.4688C56.0908 48.3966 56.596 47.8928 56.596 47.2693C56.596 46.6458 56.0908 46.1421 55.4688 46.1421H47.567C46.945 46.1421 46.4398 46.6458 46.4398 47.2693C46.4398 47.8928 46.945 48.3966 47.567 48.3966Z" fill="black"/>
<path d="M47.567 53.0163H55.4688C56.0908 53.0163 56.596 52.5126 56.596 51.8891C56.596 51.2656 56.0908 50.7618 55.4688 50.7618H47.567C46.945 50.7618 46.4398 51.2656 46.4398 51.8891C46.4398 52.5126 46.945 53.0163 47.567 53.0163Z" fill="black"/>
<path d="M71.8201 51.8891C71.8201 52.5126 72.3253 53.0163 72.9473 53.0163H80.8491C81.4711 53.0163 81.9763 52.5126 81.9763 51.8891C81.9763 51.2656 81.4711 50.7618 80.8491 50.7618H72.9473C72.3253 50.7618 71.8201 51.2656 71.8201 51.8891Z" fill="black"/>
<path d="M80.8482 55.3829H72.9464C72.3244 55.3829 71.8192 55.8867 71.8192 56.5102C71.8192 57.1337 72.3244 57.6374 72.9464 57.6374H80.8482C81.4702 57.6374 81.9754 57.1337 81.9754 56.5102C81.9754 55.8867 81.4702 55.3829 80.8482 55.3829Z" fill="black"/>
<defs>
<filter id="filter0_d_131_7" x="0" y="0" width="132" height="132" filterUnits="userSpaceOnUse" color-interpolation-filters="sRGB">
<feFlood flood-opacity="0" result="BackgroundImageFix"/>
<feColorMatrix in="SourceAlpha" type="matrix" values="0 0 0 0 0 0 0 0 0 0 0 0 0 0 0 0 0 0 127 0" result="hardAlpha"/>
<feOffset dx="2" dy="6"/>
<feGaussianBlur stdDeviation="5"/>
<feComposite in2="hardAlpha" operator="out"/>
<feColorMatrix type="matrix" values="0 0 0 0 0 0 0 0 0 0 0 0 0 0 0 0 0 0 0.2 0"/>
<feBlend mode="normal" in2="BackgroundImageFix" result="effect1_dropShadow_131_7"/>
<feBlend mode="normal" in="SourceGraphic" in2="effect1_dropShadow_131_7" result="shape"/>
</filter>
</defs>
</svg>
