<svg width="132" height="132" viewBox="0 0 132 132" fill="none" xmlns="http://www.w3.org/2000/svg">
<g filter="url(#filter0_d_131_2)">
<circle cx="64" cy="60" r="56" fill="white"/>
</g>
<path d="M88.7784 59.8165C88.6751 59.34 88.2557 59 87.7668 59H77.8569C80.5574 54.3943 82.6001 49.5865 82.6001 45.5667C82.6001 35.8801 74.256 28 64.0001 28C53.7442 28 45.4001 35.8801 45.4001 45.5667C45.4001 49.5865 47.4418 54.3943 50.1433 59H40.2334C39.7458 59 39.3251 59.34 39.2227 59.8165L33.0227 88.7499C32.9576 89.0557 33.0342 89.374 33.2294 89.6167C33.4259 89.8584 33.7216 90 34.0334 90H93.9668C94.2786 90 94.5743 89.8584 94.7694 89.6167C94.9646 89.3749 95.0421 89.0557 94.977 88.7499L88.7784 59.8165ZM63.9997 30.0672C73.1156 30.0672 80.533 37.0205 80.533 45.5672C80.533 55.077 67.3252 70.3176 63.9997 74.0045C60.6746 70.3172 47.4663 55.0774 47.4663 45.5672C47.4663 37.0205 54.8838 30.0672 63.9997 30.0672ZM35.3108 87.9338L41.0684 61.0672H51.4091C56.4198 68.9606 62.8099 75.7783 63.2493 76.2448C63.4435 76.4505 63.7152 76.5672 63.9994 76.5672C64.2836 76.5672 64.5553 76.4505 64.7504 76.2438C65.1905 75.7779 71.5796 68.9597 76.5918 61.0662H86.9312L92.6888 87.9329H35.311L35.3108 87.9338ZM71.6829 57.9672C72.2522 57.9672 72.7163 57.5054 72.7163 56.9338V45.3088L74.4669 46.6562C74.6561 46.8011 74.8761 46.8703 75.0952 46.8703C75.4061 46.8703 75.712 46.7319 75.9159 46.4662C76.2642 46.0136 76.1793 45.3655 75.7267 45.0176L64.6285 36.4811C64.2585 36.1969 63.741 36.1969 63.3687 36.4811L52.2719 45.0176C51.8193 45.3659 51.7344 46.015 52.0827 46.4662C52.4301 46.9187 53.0801 47.0045 53.5313 46.6562L55.2829 45.3088V56.9338C55.2829 57.5054 55.746 57.9672 56.3162 57.9672H71.6829ZM62.4715 55.9005V49.2511C62.4715 48.4088 63.1566 47.7229 63.999 47.7229C64.4049 47.7229 64.7883 47.882 65.078 48.1713C65.3672 48.4596 65.5273 48.8429 65.5273 49.2512V55.9005L62.4715 55.9005ZM57.3496 43.7201L63.999 38.6052L70.6496 43.7201V55.9005H67.5939V49.2511C67.5939 48.2911 67.2198 47.3892 66.5389 46.7094C65.858 46.0303 64.957 45.6562 63.9989 45.6562C62.0171 45.6562 60.4048 47.2694 60.4048 49.2511V55.9005H57.3491L57.3496 43.7201Z" fill="black"/>
<defs>
<filter id="filter0_d_131_2" x="0" y="0" width="132" height="132" filterUnits="userSpaceOnUse" color-interpolation-filters="sRGB">
<feFlood flood-opacity="0" result="BackgroundImageFix"/>
<feColorMatrix in="SourceAlpha" type="matrix" values="0 0 0 0 0 0 0 0 0 0 0 0 0 0 0 0 0 0 127 0" result="hardAlpha"/>
<feOffset dx="2" dy="6"/>
<feGaussianBlur stdDeviation="5"/>
<feComposite in2="hardAlpha" operator="out"/>
<feColorMatrix type="matrix" values="0 0 0 0 0 0 0 0 0 0 0 0 0 0 0 0 0 0 0.2 0"/>
<feBlend mode="normal" in2="BackgroundImageFix" result="effect1_dropShadow_131_2"/>
<feBlend mode="normal" in="SourceGraphic" in2="effect1_dropShadow_131_2" result="shape"/>
</filter>
</defs>
</svg>
