<svg width="132" height="132" viewBox="0 0 132 132" fill="none" xmlns="http://www.w3.org/2000/svg">
<g filter="url(#filter0_d_119_2)">
<circle cx="64" cy="60" r="56" fill="white"/>
</g>
<path d="M37.579 35.5807C40.153 35.5807 42.4406 33.4356 42.4406 30.8616C42.298 28.1451 40.153 26 37.579 26C34.8619 26 32.7169 28.1451 32.7169 30.719C32.7169 33.4361 34.8619 35.5807 37.579 35.5807Z" fill="black"/>
<path d="M94.7777 62.4644V41.4438C93.9198 41.587 92.7757 41.587 91.918 41.4438V59.6045H83.624C83.624 60.1765 83.624 61.3205 83.4809 62.4641L94.7777 62.4644Z" fill="black"/>
<path d="M93.3477 29.2892C90.6307 29.2892 88.4861 31.4343 88.4861 34.1508C88.4861 36.7248 90.6312 38.8699 93.3477 38.8699C96.0648 38.8699 98.0667 36.7248 98.0667 34.1508C98.0663 31.4343 95.9217 29.2892 93.3477 29.2892Z" fill="black"/>
<path d="M62.6034 32.1488V40.7285C63.4612 40.5854 64.6054 40.5854 65.4631 40.7285V29.2885L45.0145 29.289C45.1577 30.1468 45.1577 31.291 45.0145 32.1487L62.6034 32.1488Z" fill="black"/>
<path d="M64.0334 77.05C72.3274 77.05 79.4771 70.9011 80.6211 62.4643C81.9078 52.7405 74.3291 43.5887 64.0334 43.5887C55.5969 43.5887 48.5898 49.8807 47.4458 58.0314C46.1591 67.7546 53.7378 77.05 64.0334 77.05ZM64.0334 50.1665C66.6074 50.1665 68.6093 52.3116 68.6093 54.7424C68.6093 57.3164 66.6074 59.3183 64.0334 59.3183C61.4595 59.3183 59.4575 57.1733 59.4575 54.7424C59.4575 52.1685 61.4595 50.1665 64.0334 50.1665ZM54.8816 66.6112C54.8816 63.4651 57.4556 60.8912 60.6016 60.8912H67.4657C70.6118 60.8912 73.1857 63.4651 73.1857 66.6112V70.4718H54.8821L54.8816 66.6112Z" fill="black"/>
<path d="M90.4877 85.0579C87.9138 85.0579 85.6261 87.2029 85.6261 89.7769C85.6261 92.494 87.7712 94.6385 90.4877 94.6385C93.0617 94.6385 95.2068 92.4934 95.2068 89.7769C95.3499 87.2024 93.2048 85.0579 90.4877 85.0579Z" fill="black"/>
<path d="M65.4634 88.3468V79.7671C64.6055 79.9102 63.4614 79.9102 62.6037 79.7671V91.2071H83.0522C82.9091 90.3493 82.9091 89.2051 83.0522 88.3474L65.4634 88.3468Z" fill="black"/>
<path d="M34.719 80.3389C32.002 80.3389 30 82.4839 30 85.0579C30 87.6318 32.1451 89.7769 34.719 89.7769C37.293 89.7769 39.4381 87.6318 39.4381 85.0579C39.5812 82.4839 37.4361 80.3389 34.719 80.3389Z" fill="black"/>
<path d="M33.2891 58.1744V77.622C34.1469 77.4789 35.291 77.4789 36.1487 77.622L36.1492 61.0344H44.4432C44.4432 60.4623 44.4432 59.3183 44.5863 58.1747L33.2891 58.1744Z" fill="black"/>
<defs>
<filter id="filter0_d_119_2" x="0" y="0" width="132" height="132" filterUnits="userSpaceOnUse" color-interpolation-filters="sRGB">
<feFlood flood-opacity="0" result="BackgroundImageFix"/>
<feColorMatrix in="SourceAlpha" type="matrix" values="0 0 0 0 0 0 0 0 0 0 0 0 0 0 0 0 0 0 127 0" result="hardAlpha"/>
<feOffset dx="2" dy="6"/>
<feGaussianBlur stdDeviation="5"/>
<feComposite in2="hardAlpha" operator="out"/>
<feColorMatrix type="matrix" values="0 0 0 0 0 0 0 0 0 0 0 0 0 0 0 0 0 0 0.2 0"/>
<feBlend mode="normal" in2="BackgroundImageFix" result="effect1_dropShadow_119_2"/>
<feBlend mode="normal" in="SourceGraphic" in2="effect1_dropShadow_119_2" result="shape"/>
</filter>
</defs>
</svg>
