<svg width="132" height="132" viewBox="0 0 132 132" fill="none" xmlns="http://www.w3.org/2000/svg">
<g filter="url(#filter0_d_131_6)">
<circle cx="64" cy="60" r="56" fill="white"/>
</g>
<path fill-rule="evenodd" clip-rule="evenodd" d="M67.5972 56.7891L64.3516 62.4105C63.3548 64.1356 63.9464 66.3414 65.6716 67.3368L81.9107 76.7128C82.8467 77.2537 83.9749 77.346 84.9858 76.9654C85.9971 76.5828 86.7834 75.7695 87.1292 74.7451L88.5027 70.6891C88.5327 70.5983 88.5805 70.5143 88.6438 70.4437L91.4711 67.2257C92.1839 66.4148 92.4955 65.3257 92.3206 64.2598C92.1448 63.1939 91.5015 62.2623 90.5655 61.7227L82.4458 57.0345L85.6913 51.4131C86.1685 50.5853 86.2984 49.6001 86.0516 48.6766C85.8039 47.7522 85.1992 46.9644 84.3714 46.4868L70.0042 38.1927L70.5809 37.1929C71.0021 36.4646 71.1161 35.5977 70.8982 34.7858C70.6804 33.9719 70.1496 33.2784 69.4199 32.8582C69.1731 32.7157 68.918 32.5684 68.6712 32.4254C67.9415 32.0043 67.076 31.8903 66.2622 32.1081C65.4503 32.3259 64.7563 32.8582 64.3351 33.587C60.015 41.0701 40.8173 74.3243 36.4949 81.8071C36.0752 82.5354 35.9612 83.4009 36.179 84.2147C36.3968 85.0281 36.9276 85.7207 37.6579 86.1418C37.9042 86.2848 38.1597 86.4316 38.4065 86.5746C39.1362 86.9957 40.0017 87.1097 40.8155 86.8919C41.6274 86.674 42.3214 86.1418 42.7411 85.4135L61.3491 53.1827L67.5972 56.7891ZM68.0831 35.7503L40.244 83.9704C40.2064 84.0366 40.1431 84.0844 40.0692 84.1046C39.9958 84.1235 39.9166 84.1133 39.8499 84.0757L39.1013 83.6429C39.0352 83.6038 38.9859 83.542 38.9661 83.4671C38.9472 83.3932 38.9574 83.3155 38.9946 83.2493C43.3162 75.7657 62.5148 42.512 66.8349 35.028C66.874 34.9618 66.9373 34.914 67.0107 34.8942C67.0846 34.8739 67.1638 34.8841 67.2299 34.9227L67.9786 35.3555C68.0452 35.3931 68.094 35.4564 68.1128 35.5303C68.1331 35.6037 68.123 35.6829 68.0838 35.7496L68.0831 35.7503ZM81.0036 59.5327L80.6428 60.1572C80.1999 60.9246 79.4904 61.5003 78.6539 61.7771L68.0357 65.3704L83.3537 74.2141C83.5415 74.3223 83.7666 74.3411 83.9685 74.2648C84.1718 74.188 84.3288 74.0252 84.3983 73.8204L85.77 69.7639C85.9231 69.3123 86.1636 68.8955 86.4766 68.5396L89.3054 65.3211C89.4469 65.1598 89.5102 64.9419 89.4744 64.7285C89.4397 64.515 89.3112 64.329 89.1238 64.2209L81.0036 59.5327ZM70.0956 58.2316L67.6575 62.4537L73.8043 60.3736L70.0956 58.2316ZM68.5622 40.6906L62.7921 50.6843L77.1592 58.9784C77.3249 59.0736 77.521 59.0996 77.706 59.0504C77.8905 59.0016 78.0474 58.8804 78.144 58.7142L83.193 49.9699C83.2882 49.8043 83.3143 49.6082 83.265 49.4218C83.2148 49.2373 83.095 49.0798 82.9288 48.9847L68.5622 40.6906Z" fill="black"/>
<defs>
<filter id="filter0_d_131_6" x="0" y="0" width="132" height="132" filterUnits="userSpaceOnUse" color-interpolation-filters="sRGB">
<feFlood flood-opacity="0" result="BackgroundImageFix"/>
<feColorMatrix in="SourceAlpha" type="matrix" values="0 0 0 0 0 0 0 0 0 0 0 0 0 0 0 0 0 0 127 0" result="hardAlpha"/>
<feOffset dx="2" dy="6"/>
<feGaussianBlur stdDeviation="5"/>
<feComposite in2="hardAlpha" operator="out"/>
<feColorMatrix type="matrix" values="0 0 0 0 0 0 0 0 0 0 0 0 0 0 0 0 0 0 0.2 0"/>
<feBlend mode="normal" in2="BackgroundImageFix" result="effect1_dropShadow_131_6"/>
<feBlend mode="normal" in="SourceGraphic" in2="effect1_dropShadow_131_6" result="shape"/>
</filter>
</defs>
</svg>
