<svg width="132" height="132" viewBox="0 0 132 132" fill="none" xmlns="http://www.w3.org/2000/svg">
<g filter="url(#filter0_d_131_3)">
<circle cx="64" cy="60" r="56" fill="white"/>
</g>
<path d="M95.809 28.209C95.6163 28.0167 95.3314 27.9505 95.0734 28.0381L40.1551 46.7794C39.922 46.8591 39.7462 47.0534 39.6904 47.2935C39.6346 47.5335 39.7068 47.7851 39.8807 47.9594L52.1963 60.2719L52.0294 71.2641H52.0289C52.0259 71.4569 52.1012 71.6432 52.2376 71.7797C52.3696 71.9231 52.5589 71.9998 52.7536 71.9888L63.7448 71.8225L76.0584 84.1347C76.1919 84.2686 76.3737 84.3439 76.5629 84.3439C76.6172 84.3444 76.6715 84.3379 76.7243 84.3254C76.9644 84.2696 77.1586 84.0938 77.2383 83.8607L95.9797 28.945C96.0673 28.687 96.0011 28.4021 95.8088 28.2093L95.809 28.209ZM63.6716 70.3954L54.4935 70.5349L89.0842 35.9442L63.6716 70.3954ZM53.6227 60.3461L88.0732 34.9361L53.4837 69.5255L53.6227 60.3461ZM41.7031 47.7606L91.1615 30.8809L52.9839 59.0426L41.7031 47.7606ZM76.2582 82.3156L64.9761 71.0336L93.1378 32.8573L76.2582 82.3156ZM80.1138 66.5886L78.3571 71.7323C78.2585 72.0217 77.987 72.216 77.6817 72.216C77.6035 72.2155 77.5253 72.2025 77.4511 72.1776C77.2718 72.1164 77.1243 71.9864 77.0406 71.816C76.9575 71.6462 76.945 71.4499 77.0063 71.2706L78.7621 66.1295C78.8204 65.9467 78.9499 65.7947 79.1217 65.7086C79.293 65.6224 79.4918 65.6085 79.6736 65.6707C79.8554 65.733 80.0043 65.8655 80.087 66.0388C80.1697 66.2121 80.1791 66.4109 80.1134 66.5912L80.1138 66.5886ZM84.4765 53.8109L81.243 63.2879C81.1444 63.5773 80.8724 63.772 80.5666 63.772C80.4879 63.7716 80.4102 63.7586 80.336 63.7332C80.1567 63.6719 80.0093 63.5419 79.9256 63.3721C79.8424 63.2018 79.8299 63.0055 79.8912 62.8267L83.1252 53.3507V53.3502C83.1845 53.1689 83.314 53.019 83.4848 52.9338C83.6557 52.8487 83.8529 52.8352 84.0337 52.897C84.2145 52.9587 84.363 53.0897 84.4461 53.2616C84.5293 53.4329 84.5403 53.6311 84.4765 53.811L84.4765 53.8109ZM49.6677 74.3514C49.9462 74.6303 49.9462 75.0826 49.6677 75.361L40.6046 84.4246C40.3262 84.7035 39.874 84.704 39.595 84.4251C39.3161 84.1462 39.3156 83.6939 39.5945 83.415L48.6581 74.3514C48.9366 74.073 49.3888 74.073 49.6678 74.3514H49.6677ZM37.772 86.2471C38.051 86.5255 38.051 86.9778 37.772 87.2567L34.4539 90.5754C34.1749 90.8543 33.7227 90.8543 33.4437 90.5754C33.1648 90.2965 33.1648 89.8442 33.4437 89.5653L36.7619 86.2471C36.8959 86.1126 37.0777 86.0374 37.267 86.0374C37.4567 86.0374 37.6385 86.1126 37.772 86.2471L37.772 86.2471ZM48.4245 64.5846L39.3604 73.6471C39.08 73.9181 38.6347 73.9141 38.3593 73.6387C38.0838 73.3632 38.0798 72.918 38.3508 72.6375L47.4149 63.5739C47.6938 63.2955 48.1461 63.2955 48.425 63.5744C48.7035 63.8533 48.7035 64.3056 48.4245 64.5845V64.5846ZM36.5283 76.4793L33.2101 79.7974C32.9302 80.0679 32.4844 80.0639 32.209 79.7885C31.9335 79.513 31.93 79.0677 32.2005 78.7878L35.5183 75.4696C35.7967 75.1907 36.249 75.1902 36.5279 75.4691C36.8073 75.7481 36.8073 76.2003 36.5284 76.4793H36.5283ZM60.449 75.5952C60.7275 75.8741 60.7275 76.3259 60.449 76.6048L51.382 85.6689C51.249 85.8069 51.0662 85.8856 50.8744 85.8871C50.6832 85.8886 50.4989 85.8133 50.3634 85.6779C50.2279 85.5424 50.1527 85.3586 50.1542 85.1668C50.1557 84.9751 50.2344 84.7923 50.3724 84.6593L59.435 75.5952C59.569 75.4612 59.7508 75.3855 59.9405 75.3855C60.1303 75.3855 60.3121 75.4612 60.4461 75.5952H60.449ZM48.5494 87.4914C48.8278 87.7703 48.8278 88.2221 48.5494 88.501L45.2316 91.8192C44.9487 92.0712 44.5183 92.0583 44.2508 91.7898C43.9834 91.5213 43.9724 91.0905 44.2254 90.8086L47.5432 87.4908V87.4913C47.8217 87.2148 48.2709 87.2148 48.5494 87.4913L48.5494 87.4914Z" fill="black" stroke="black"/>
<defs>
<filter id="filter0_d_131_3" x="0" y="0" width="132" height="132" filterUnits="userSpaceOnUse" color-interpolation-filters="sRGB">
<feFlood flood-opacity="0" result="BackgroundImageFix"/>
<feColorMatrix in="SourceAlpha" type="matrix" values="0 0 0 0 0 0 0 0 0 0 0 0 0 0 0 0 0 0 127 0" result="hardAlpha"/>
<feOffset dx="2" dy="6"/>
<feGaussianBlur stdDeviation="5"/>
<feComposite in2="hardAlpha" operator="out"/>
<feColorMatrix type="matrix" values="0 0 0 0 0 0 0 0 0 0 0 0 0 0 0 0 0 0 0.2 0"/>
<feBlend mode="normal" in2="BackgroundImageFix" result="effect1_dropShadow_131_3"/>
<feBlend mode="normal" in="SourceGraphic" in2="effect1_dropShadow_131_3" result="shape"/>
</filter>
</defs>
</svg>
