<svg width="136" height="39" viewBox="0 0 136 39" fill="none" xmlns="http://www.w3.org/2000/svg">
<path fill-rule="evenodd" clip-rule="evenodd" d="M22.6139 3.15741C21.3442 1.8915 19.2861 1.89192 18.017 3.15836L7.42481 13.7277L7.41579 13.7251L7.38231 13.7287C7.3961 13.7353 7.40963 13.7418 7.42289 13.7484C5.56481 13.9426 4.77645 14.4995 4.76753 15.2147C4.77067 15.4808 4.88011 15.7681 5.08113 16.0664L5.07146 16.076C6.76065 18.6172 15.1288 21.9695 21.0491 19.6982C16.6121 21.911 6.16273 22.3496 3.0936 18.0532C2.42708 18.7724 2.14821 19.7175 2.25323 20.6258C3.06401 25.0832 12.1286 26.2992 21.1932 19.8411L23.1548 21.7976C20.7139 24.2989 17.1085 38.8276 22.4658 36.6094C22.5928 36.5233 22.7007 36.4463 22.8474 36.3356L23.0862 36.1108C23.0724 36.1142 23.0587 36.1174 23.0451 36.1206L37.3931 22.6099C38.7253 21.3554 38.7555 19.2512 37.4597 17.9592L22.6139 3.15741ZM21.0515 7.56042L21.5418 5.6039L22.0322 7.56042L23.5034 8.04956L22.0322 8.5387L21.5418 10.4952L21.0515 8.5387L19.5803 8.04956L21.0515 7.56042ZM14.9817 13.9474L15.3086 12.643L15.6355 13.9474L16.6163 14.2735L15.6355 14.5996L15.3086 15.9039L14.9817 14.5996L14.001 14.2735L14.9817 13.9474ZM26.3679 24.9496L26.041 26.2539L25.0603 26.58L26.041 26.9061L26.3679 28.2104L26.6949 26.9061L27.6757 26.58L26.6949 26.2539L26.3679 24.9496Z" fill="#FBA709"/>
<path d="M46.6633 10.4075H43.6185V24.1111H52.0475V21.4259H46.6633V10.4075Z" fill="#FBA709"/>
<path d="M52.3383 19.4629C52.3383 22.3889 54.3063 24.3333 57.2768 24.3333C60.2288 24.3333 62.1967 22.3889 62.1967 19.4629C62.1967 16.537 60.2288 14.5741 57.2768 14.5741C54.3063 14.5741 52.3383 16.537 52.3383 19.4629ZM55.216 19.4445C55.216 18.0556 56.0329 17.1296 57.2768 17.1296C58.5021 17.1296 59.3191 18.0556 59.3191 19.4445C59.3191 20.8519 58.5021 21.7778 57.2768 21.7778C56.0329 21.7778 55.216 20.8519 55.216 19.4445Z" fill="#FBA709"/>
<path d="M62.6566 19.3148C62.6566 22.111 64.4761 23.9999 67.0567 23.9999C68.3007 23.9999 69.3775 23.5555 69.9159 22.8333V24.1111C69.9159 25.3888 69.1176 26.2407 67.7066 26.2407C66.4441 26.2407 65.5715 25.6481 65.5158 24.5926H62.6196C62.8794 27.1296 64.8474 28.8333 67.5395 28.8333C70.7143 28.8333 72.7194 26.7777 72.7194 23.5184V14.8519H70.1387L69.9902 15.7963C69.4703 15.037 68.3749 14.5371 67.1125 14.5371C64.5133 14.5371 62.6566 16.4815 62.6566 19.3148ZM65.5529 19.2407C65.5529 17.9074 66.4441 17.0185 67.5766 17.0185C68.8948 17.0185 69.8602 17.8889 69.8602 19.2407C69.8602 20.5926 68.9134 21.5185 67.5952 21.5185C66.4627 21.5185 65.5529 20.5926 65.5529 19.2407Z" fill="#FBA709"/>
<path d="M73.5527 19.4629C73.5527 22.3889 75.5207 24.3333 78.4912 24.3333C81.4432 24.3333 83.4112 22.3889 83.4112 19.4629C83.4112 16.537 81.4432 14.5741 78.4912 14.5741C75.5207 14.5741 73.5527 16.537 73.5527 19.4629ZM76.4304 19.4445C76.4304 18.0556 77.2473 17.1296 78.4912 17.1296C79.7166 17.1296 80.5334 18.0556 80.5334 19.4445C80.5334 20.8519 79.7166 21.7778 78.4912 21.7778C77.2473 21.7778 76.4304 20.8519 76.4304 19.4445Z" fill="#FBA709"/>
<path d="M85.8764 13.4074C86.7672 13.4074 87.4914 12.6853 87.4914 11.7778C87.4914 10.8704 86.7672 10.1667 85.8764 10.1667C84.9665 10.1667 84.2424 10.8704 84.2424 11.7778C84.2424 12.6853 84.9665 13.4074 85.8764 13.4074ZM84.428 24.1111H87.3061V14.8519H84.428V24.1111Z" fill="#FBA709"/>
<path d="M88.9806 28.5555H91.8026V23.1852C92.3415 23.8889 93.5663 24.3703 94.8481 24.3703C97.614 24.3703 99.2851 22.2593 99.2103 19.3333C99.1364 16.3519 97.41 14.5556 94.8294 14.5556C93.5111 14.5556 92.2675 15.1296 91.7473 15.9815L91.5986 14.8519H88.9806V28.5555ZM91.8587 19.4814C91.8587 18.0926 92.7869 17.1667 94.1239 17.1667C95.4788 17.1667 96.3331 18.1111 96.3331 19.4814C96.3331 20.8519 95.4788 21.7963 94.1239 21.7963C92.7869 21.7963 91.8587 20.8704 91.8587 19.4814Z" fill="#FBA709"/>
<path d="M99.5154 21.1851C99.5894 23.0555 101.075 24.3518 103.414 24.3518C105.661 24.3518 107.221 23.1666 107.221 21.2592C107.221 19.8889 106.403 18.9815 104.881 18.6111L103.228 18.2037C102.634 18.0556 102.263 17.9075 102.263 17.426C102.263 16.9445 102.653 16.6296 103.228 16.6296C103.878 16.6296 104.305 17.0556 104.286 17.6852H106.868C106.793 15.7593 105.327 14.5556 103.284 14.5556C101.223 14.5556 99.6829 15.7778 99.6829 17.6296C99.6829 18.8704 100.37 19.8889 102.207 20.3704L103.841 20.7963C104.324 20.9259 104.528 21.1481 104.528 21.463C104.528 21.9259 104.101 22.2222 103.377 22.2222C102.541 22.2222 102.096 21.8333 102.096 21.1851H99.5154Z" fill="#FBA709"/>
<path d="M111.597 24.3518C112.73 24.3518 113.862 23.8333 114.437 23.074L114.623 24.1111H117.315V14.8519H114.456V19.6667C114.456 21.0555 114.047 21.8148 112.73 21.8148C111.708 21.8148 111.04 21.3518 111.04 19.6296V14.8519H108.18V20.6666C108.18 22.8704 109.406 24.3518 111.597 24.3518Z" fill="#FBA709"/>
<path d="M121.849 24.1111V19.0556C121.849 17.5 122.685 17.0555 123.502 17.0555C124.411 17.0555 125.005 17.6111 125.005 18.7593V24.1111H127.827V19.0556C127.827 17.4815 128.644 17.0371 129.461 17.0371C130.37 17.0371 130.983 17.5926 130.983 18.7593V24.1111H133.769V18.0556C133.769 15.9445 132.654 14.5371 130.259 14.5371C128.923 14.5371 127.827 15.1852 127.344 16.1852C126.788 15.1852 125.822 14.5371 124.281 14.5371C123.26 14.5371 122.313 15 121.757 15.7407L121.645 14.8519H118.971V24.1111H121.849Z" fill="#FBA709"/>
<path fill-rule="evenodd" clip-rule="evenodd" d="M38.4981 4.45218C35.4307 4.45218 32.5217 5.81117 30.5579 8.1616L23.5718 16.5236L27.6059 10.4879L20.9096 13.3504C20.0592 13.7139 19.8458 14.8191 20.5 15.4716L22.6549 17.621L21.5547 18.9379L23.9752 21.3522L25.2954 20.2547L27.4503 22.4042C28.1045 23.0566 29.2126 22.8438 29.577 21.9957L32.4468 15.3165L26.3957 19.3403L34.7791 12.3719C37.1356 10.4133 38.4981 7.51175 38.4981 4.45218ZM31.8418 11.0916C32.5101 11.7583 33.5938 11.7583 34.2622 11.0916C34.9306 10.4249 34.9306 9.34398 34.2622 8.67734C33.5938 8.01062 32.5101 8.01062 31.8418 8.67734C31.1733 9.34398 31.1733 10.4249 31.8418 11.0916Z" fill="#A3A2FF"/>
<path opacity="0.6" d="M3.01575 17.9408C4.61839 23.4176 14.3621 23.132 21.0472 19.6991C16.5708 21.9302 5.98141 22.3563 3.01575 17.9408Z" fill="#424242"/>
<path opacity="0.6" d="M22.4657 36.6094C17.9516 38.4785 19.8012 28.4568 21.9554 23.7599C20.3851 27.9348 19.0447 37.138 23.0862 36.1108L22.8474 36.3356C22.7007 36.4463 22.5928 36.5233 22.4657 36.6094Z" fill="#424242"/>
</svg>
