<svg width="52" height="52" viewBox="0 0 52 52" fill="none" xmlns="http://www.w3.org/2000/svg">
<circle cx="26" cy="26" r="26" fill="#FBA709"/>
<path d="M14 17.4445H18.8889M36 17.4445H23.7778M14 26H28.6667M36 26H33.5556M14 34.5556H16.4444M36 34.5556H21.3333" stroke="white" stroke-width="2" stroke-linecap="round"/>
<path d="M21.3334 19.8889C22.6834 19.8889 23.7778 18.7945 23.7778 17.4444C23.7778 16.0944 22.6834 15 21.3334 15C19.9833 15 18.8889 16.0944 18.8889 17.4444C18.8889 18.7945 19.9833 19.8889 21.3334 19.8889Z" stroke="white" stroke-width="2" stroke-linecap="round"/>
<path d="M31.1111 28.4444C32.4612 28.4444 33.5556 27.35 33.5556 26C33.5556 24.65 32.4612 23.5555 31.1111 23.5555C29.7611 23.5555 28.6667 24.65 28.6667 26C28.6667 27.35 29.7611 28.4444 31.1111 28.4444Z" stroke="white" stroke-width="2" stroke-linecap="round"/>
<path d="M18.8889 37C20.2389 37 21.3333 35.9056 21.3333 34.5556C21.3333 33.2055 20.2389 32.1111 18.8889 32.1111C17.5389 32.1111 16.4445 33.2055 16.4445 34.5556C16.4445 35.9056 17.5389 37 18.8889 37Z" stroke="white" stroke-width="2" stroke-linecap="round"/>
</svg>
