<svg width="25" height="25" viewBox="0 0 25 25" fill="none" xmlns="http://www.w3.org/2000/svg">
<path d="M16.5398 14.264L23.5288 21.2529" stroke="white" stroke-width="2"/>
<path d="M14.264 16.5397L21.253 23.5287" stroke="white" stroke-width="2"/>
<path d="M21.253 23.5287C21.5548 23.8305 21.9641 24 22.3909 24C22.8177 24 23.227 23.8305 23.5288 23.5287" stroke="white" stroke-width="2" stroke-linecap="round" stroke-linejoin="round"/>
<path d="M23.5287 21.253C23.8305 21.5547 24 21.964 24 22.3908C24 22.8176 23.8305 23.2269 23.5287 23.5287" stroke="white" stroke-width="2" stroke-linecap="round" stroke-linejoin="round"/>
<path d="M1.00013 8.24136C1.00013 9.19231 1.18743 10.1339 1.55135 11.0125C1.91526 11.8911 2.44865 12.6894 3.12108 13.3618C3.7935 14.0342 4.59178 14.5676 5.47034 14.9315C6.3489 15.2954 7.29054 15.4827 8.24149 15.4827C9.19244 15.4827 10.1341 15.2954 11.0126 14.9315C11.8912 14.5676 12.6895 14.0342 13.3619 13.3618C14.0343 12.6894 14.5677 11.8911 14.9316 11.0125C15.2955 10.1339 15.4828 9.19231 15.4828 8.24136C15.4828 6.32083 14.7199 4.47896 13.3619 3.12094C12.0039 1.76293 10.162 1 8.24149 1C7.29054 1 6.3489 1.1873 5.47034 1.55122C4.59178 1.91513 3.7935 2.44852 3.12108 3.12094C2.44865 3.79337 1.91526 4.59165 1.55135 5.47021C1.18743 6.34877 1.00013 7.29041 1.00013 8.24136Z" stroke="white" stroke-width="2" stroke-linecap="round" stroke-linejoin="round"/>
<path d="M16.5397 14.264L14.264 16.5397" stroke="white" stroke-width="2" stroke-linecap="round" stroke-linejoin="round"/>
<path d="M15.4019 15.4019L13.3618 13.3618" stroke="white" stroke-width="2" stroke-linecap="round" stroke-linejoin="round"/>
<path d="M18.4821 16.2064L16.2063 18.4822" stroke="white" stroke-width="2" stroke-linecap="round" stroke-linejoin="round"/>
<path d="M4.21857 8.24133C4.21857 9.30829 4.64242 10.3316 5.39687 11.086C6.15133 11.8405 7.17459 12.2643 8.24155 12.2643" stroke="white" stroke-width="2" stroke-linecap="round" stroke-linejoin="round"/>
</svg>
